<svg width="56" height="64" viewBox="0 0 56 64" fill="none" xmlns="http://www.w3.org/2000/svg">
<g filter="url(#filter0_d_4659_13059)">
<path d="M45.0475 7.08766C46.4977 8.53788 46.4977 10.8892 45.0475 12.3394L39.7821 17.6047L45.0475 22.8701C46.4977 24.3203 46.4977 26.6716 45.0475 28.1218C43.5972 29.572 41.246 29.572 39.7958 28.1218L31.9045 20.2306C30.4543 18.7804 30.4543 16.4291 31.9045 14.9789L39.7958 7.08766C41.246 5.63745 43.5972 5.63745 45.0475 7.08766Z" fill="white"/>
<path d="M10.0877 7.08767C11.5379 5.63745 13.8891 5.63745 15.3394 7.08767L45.0475 36.7958C46.4977 38.246 46.4977 40.5973 45.0475 42.0475C43.5972 43.4977 41.246 43.4977 39.7958 42.0475L10.0877 12.3394C8.63745 10.8892 8.63745 8.53788 10.0877 7.08767Z" fill="white"/>
<path d="M15.3394 21.0134C13.8891 19.5631 11.5379 19.5631 10.0877 21.0134C8.63745 22.4636 8.63745 24.8148 10.0877 26.2651L25.8701 42.0475C27.3203 43.4977 29.6716 43.4977 31.1218 42.0475C32.572 40.5973 32.572 38.246 31.1218 36.7958L15.3394 21.0134Z" fill="white"/>
<path d="M15.3394 34.939C13.8891 33.4888 11.5379 33.4888 10.0877 34.939C8.63745 36.3893 8.63745 38.7405 10.0877 40.1908L11.9444 42.0475C13.3946 43.4977 15.7459 43.4977 17.1961 42.0475C18.6463 40.5973 18.6463 38.246 17.1961 36.7958L15.3394 34.939Z" fill="white"/>
<path d="M13.1972 53.9898C12.53 53.9898 11.9207 53.8468 11.3692 53.5609C10.8246 53.2749 10.3889 52.8562 10.0621 52.3048C9.74208 51.7533 9.58209 51.0963 9.58209 50.3338C9.58209 49.6394 9.72166 49.0097 10.0008 48.4446C10.2867 47.8795 10.702 47.4336 11.2467 47.1068C11.7913 46.78 12.4381 46.6166 13.187 46.6166C13.718 46.6166 14.2286 46.7357 14.7188 46.974C15.209 47.2055 15.6413 47.5493 16.0158 48.0055L15.352 48.5569C14.7665 47.8284 14.0448 47.4642 13.187 47.4642C12.6491 47.4642 12.176 47.5868 11.7675 47.8318C11.3658 48.0769 11.056 48.4173 10.8382 48.8531C10.6203 49.2888 10.5114 49.7824 10.5114 50.3338C10.5114 50.8989 10.6271 51.3959 10.8586 51.8248C11.0901 52.2469 11.4101 52.5737 11.8186 52.8052C12.227 53.0367 12.6866 53.1524 13.1972 53.1524C13.6465 53.1524 14.0516 53.0571 14.4124 52.8665C14.7733 52.669 15.0898 52.4001 15.3622 52.0597L16.026 52.6214C15.6856 53.0435 15.2805 53.3771 14.8107 53.6222C14.341 53.8672 13.8031 53.9898 13.1972 53.9898Z" fill="white"/>
<path d="M17.5132 47.4948V46.6881H22.7622V47.4948H20.5666V53.9387H19.6782V47.4948H17.5132Z" fill="white"/>
<path fill-rule="evenodd" clip-rule="evenodd" d="M29.1473 47.3008C28.7524 46.8923 28.1533 46.6881 27.35 46.6881H24.7765V53.9387H25.665V51.1712H26.9619L28.8818 53.9387H29.9439L27.9423 51.0895C28.5278 50.967 28.9737 50.7287 29.2801 50.3747C29.5932 50.0138 29.7498 49.5339 29.7498 48.9348C29.7498 48.254 29.549 47.7093 29.1473 47.3008ZM28.4018 49.9764C28.1159 50.2351 27.6836 50.3645 27.1049 50.3645H25.665V47.4948H27.2274C27.7312 47.4948 28.1227 47.6174 28.4018 47.8625C28.6878 48.1076 28.8307 48.4582 28.8307 48.9143C28.8307 49.3569 28.6878 49.7109 28.4018 49.9764Z" fill="white"/>
<path d="M34.6723 54C34.1141 54 33.6239 53.8809 33.2018 53.6426C32.7797 53.4043 32.4495 53.0605 32.2112 52.6111C31.9797 52.155 31.864 51.6138 31.864 50.9874V46.6881H32.7524V50.9261C32.7524 51.6001 32.926 52.1414 33.2733 52.5499C33.6205 52.9584 34.0868 53.1626 34.6723 53.1626C35.0468 53.1626 35.3804 53.0741 35.6731 52.8971C35.9659 52.7133 36.1939 52.4546 36.3573 52.121C36.5207 51.7806 36.6024 51.3823 36.6024 50.9261V46.6881H37.4909V50.9874C37.4909 51.6001 37.3751 52.1346 37.1437 52.5907C36.919 53.0401 36.5922 53.3873 36.1633 53.6324C35.7412 53.8775 35.2442 54 34.6723 54Z" fill="white"/>
<path d="M40.8819 50.0887V46.6881H39.9934V53.9387H40.8819V50.8955H44.6706V53.9387H45.559V46.6881H44.6706V50.0887H40.8819Z" fill="white"/>
</g>
<defs>
<filter id="filter0_d_4659_13059" x="1" y="0" width="53.1351" height="64" filterUnits="userSpaceOnUse" color-interpolation-filters="sRGB">
<feFlood flood-opacity="0" result="BackgroundImageFix"/>
<feColorMatrix in="SourceAlpha" type="matrix" values="0 0 0 0 0 0 0 0 0 0 0 0 0 0 0 0 0 0 127 0" result="hardAlpha"/>
<feOffset dy="2"/>
<feGaussianBlur stdDeviation="4"/>
<feComposite in2="hardAlpha" operator="out"/>
<feColorMatrix type="matrix" values="0 0 0 0 0.196078 0 0 0 0 0.196078 0 0 0 0 0.196078 0 0 0 0.1 0"/>
<feBlend mode="normal" in2="BackgroundImageFix" result="effect1_dropShadow_4659_13059"/>
<feBlend mode="normal" in="SourceGraphic" in2="effect1_dropShadow_4659_13059" result="shape"/>
</filter>
</defs>
</svg>
